<mxfile host="app.diagrams.net" modified="2022-08-12T09:04:53.683Z" agent="5.0 (Windows NT 10.0; Win64; x64) AppleWebKit/537.36 (KHTML, like Gecko) Chrome/104.0.5112.81 Safari/537.36 Edg/104.0.1293.47" etag="BKXgEvj-0_-UAnUI3G5z" version="20.2.3" type="github">
  <diagram id="EqV8lSuzYD6k_3MuU8o_" name="Page-1">
    <mxGraphModel dx="2272" dy="786" grid="1" gridSize="10" guides="1" tooltips="1" connect="1" arrows="1" fold="1" page="1" pageScale="1" pageWidth="850" pageHeight="1100" math="0" shadow="0">
      <root>
        <mxCell id="0" />
        <mxCell id="1" parent="0" />
        <mxCell id="oUv9BmXBuh5ouN48f6Lx-1" value="项目仪表盘组" style="rounded=0;whiteSpace=wrap;html=1;fillColor=#d5e8d4;strokeColor=#82b366;" vertex="1" parent="1">
          <mxGeometry x="90" y="155" width="120" height="60" as="geometry" />
        </mxCell>
        <mxCell id="oUv9BmXBuh5ouN48f6Lx-28" value="" style="edgeStyle=orthogonalEdgeStyle;rounded=0;orthogonalLoop=1;jettySize=auto;html=1;" edge="1" parent="1" source="oUv9BmXBuh5ouN48f6Lx-4" target="oUv9BmXBuh5ouN48f6Lx-27">
          <mxGeometry relative="1" as="geometry" />
        </mxCell>
        <mxCell id="oUv9BmXBuh5ouN48f6Lx-4" value="跨工作面图表" style="rounded=0;whiteSpace=wrap;html=1;fillColor=#dae8fc;strokeColor=#6c8ebf;" vertex="1" parent="1">
          <mxGeometry x="290" y="40" width="120" height="60" as="geometry" />
        </mxCell>
        <mxCell id="oUv9BmXBuh5ouN48f6Lx-5" value="工作面仪表盘组1" style="rounded=0;whiteSpace=wrap;html=1;fillColor=#d5e8d4;strokeColor=#82b366;" vertex="1" parent="1">
          <mxGeometry x="290" y="260" width="120" height="60" as="geometry" />
        </mxCell>
        <mxCell id="oUv9BmXBuh5ouN48f6Lx-6" value="指定工作面图表" style="rounded=0;whiteSpace=wrap;html=1;fillColor=#dae8fc;strokeColor=#6c8ebf;" vertex="1" parent="1">
          <mxGeometry x="510" y="200" width="120" height="60" as="geometry" />
        </mxCell>
        <mxCell id="oUv9BmXBuh5ouN48f6Lx-13" value="" style="edgeStyle=orthogonalEdgeStyle;rounded=0;orthogonalLoop=1;jettySize=auto;html=1;" edge="1" parent="1" source="oUv9BmXBuh5ouN48f6Lx-9" target="oUv9BmXBuh5ouN48f6Lx-12">
          <mxGeometry relative="1" as="geometry" />
        </mxCell>
        <mxCell id="oUv9BmXBuh5ouN48f6Lx-9" value="" style="shape=curlyBracket;whiteSpace=wrap;html=1;rounded=1;" vertex="1" parent="1">
          <mxGeometry x="250" y="590" width="20" height="210" as="geometry" />
        </mxCell>
        <mxCell id="oUv9BmXBuh5ouN48f6Lx-12" value="项目视图组" style="whiteSpace=wrap;html=1;rounded=1;fillColor=#d5e8d4;strokeColor=#82b366;" vertex="1" parent="1">
          <mxGeometry x="90" y="665" width="120" height="60" as="geometry" />
        </mxCell>
        <mxCell id="oUv9BmXBuh5ouN48f6Lx-14" value="工作面视图组" style="whiteSpace=wrap;html=1;rounded=1;fillColor=#d5e8d4;strokeColor=#82b366;" vertex="1" parent="1">
          <mxGeometry x="290" y="765" width="120" height="60" as="geometry" />
        </mxCell>
        <mxCell id="oUv9BmXBuh5ouN48f6Lx-18" value="" style="shape=curlyBracket;whiteSpace=wrap;html=1;rounded=1;" vertex="1" parent="1">
          <mxGeometry x="230" y="70" width="20" height="230" as="geometry" />
        </mxCell>
        <mxCell id="oUv9BmXBuh5ouN48f6Lx-19" value="" style="shape=curlyBracket;whiteSpace=wrap;html=1;rounded=1;" vertex="1" parent="1">
          <mxGeometry x="-90" y="280" width="20" height="120" as="geometry" />
        </mxCell>
        <mxCell id="oUv9BmXBuh5ouN48f6Lx-20" value="" style="edgeStyle=orthogonalEdgeStyle;rounded=0;orthogonalLoop=1;jettySize=auto;html=1;" edge="1" parent="1" source="oUv9BmXBuh5ouN48f6Lx-21" target="oUv9BmXBuh5ouN48f6Lx-22">
          <mxGeometry relative="1" as="geometry" />
        </mxCell>
        <mxCell id="oUv9BmXBuh5ouN48f6Lx-21" value="工作面组2" style="rounded=0;whiteSpace=wrap;html=1;fillColor=#d5e8d4;strokeColor=#82b366;" vertex="1" parent="1">
          <mxGeometry x="285" y="440" width="120" height="60" as="geometry" />
        </mxCell>
        <mxCell id="oUv9BmXBuh5ouN48f6Lx-22" value="指定工作面图表" style="rounded=0;whiteSpace=wrap;html=1;fillColor=#dae8fc;strokeColor=#6c8ebf;" vertex="1" parent="1">
          <mxGeometry x="505" y="440" width="120" height="60" as="geometry" />
        </mxCell>
        <mxCell id="oUv9BmXBuh5ouN48f6Lx-23" value=".。。。。" style="text;html=1;strokeColor=none;fillColor=none;align=center;verticalAlign=middle;whiteSpace=wrap;rounded=0;" vertex="1" parent="1">
          <mxGeometry x="305" y="510" width="60" height="30" as="geometry" />
        </mxCell>
        <mxCell id="oUv9BmXBuh5ouN48f6Lx-25" value="测点1试图组" style="whiteSpace=wrap;html=1;fillColor=#d5e8d4;strokeColor=#82b366;rounded=1;" vertex="1" parent="1">
          <mxGeometry x="480" y="705" width="120" height="60" as="geometry" />
        </mxCell>
        <mxCell id="oUv9BmXBuh5ouN48f6Lx-27" value="所有视图" style="ellipse;whiteSpace=wrap;html=1;fillColor=#f8cecc;strokeColor=#b85450;rounded=0;" vertex="1" parent="1">
          <mxGeometry x="505" y="40" width="120" height="60" as="geometry" />
        </mxCell>
        <mxCell id="oUv9BmXBuh5ouN48f6Lx-31" style="edgeStyle=orthogonalEdgeStyle;rounded=0;orthogonalLoop=1;jettySize=auto;html=1;entryX=1;entryY=0.5;entryDx=0;entryDy=0;" edge="1" parent="1" source="oUv9BmXBuh5ouN48f6Lx-29" target="oUv9BmXBuh5ouN48f6Lx-5">
          <mxGeometry relative="1" as="geometry" />
        </mxCell>
        <mxCell id="oUv9BmXBuh5ouN48f6Lx-29" value="" style="shape=curlyBracket;whiteSpace=wrap;html=1;rounded=1;" vertex="1" parent="1">
          <mxGeometry x="470" y="230" width="20" height="120" as="geometry" />
        </mxCell>
        <mxCell id="oUv9BmXBuh5ouN48f6Lx-32" value="工作面视图" style="ellipse;whiteSpace=wrap;html=1;fillColor=#f8cecc;strokeColor=#b85450;" vertex="1" parent="1">
          <mxGeometry x="510" y="270" width="110" height="60" as="geometry" />
        </mxCell>
        <mxCell id="oUv9BmXBuh5ouN48f6Lx-33" value="" style="ellipse;whiteSpace=wrap;html=1;" vertex="1" parent="1">
          <mxGeometry x="510" y="340" width="110" height="60" as="geometry" />
        </mxCell>
        <mxCell id="oUv9BmXBuh5ouN48f6Lx-34" value="" style="shape=curlyBracket;whiteSpace=wrap;html=1;rounded=1;" vertex="1" parent="1">
          <mxGeometry x="440" y="735" width="20" height="275" as="geometry" />
        </mxCell>
        <mxCell id="oUv9BmXBuh5ouN48f6Lx-35" value="测点2试图组" style="whiteSpace=wrap;html=1;fillColor=#d5e8d4;strokeColor=#82b366;rounded=1;" vertex="1" parent="1">
          <mxGeometry x="480" y="860" width="120" height="60" as="geometry" />
        </mxCell>
        <mxCell id="oUv9BmXBuh5ouN48f6Lx-36" value="各工作面创建 + 各测点创建" style="ellipse;whiteSpace=wrap;html=1;fillColor=#f8cecc;strokeColor=#b85450;rounded=1;" vertex="1" parent="1">
          <mxGeometry x="670" y="645" width="120" height="60" as="geometry" />
        </mxCell>
        <mxCell id="oUv9BmXBuh5ouN48f6Lx-38" value="" style="shape=curlyBracket;whiteSpace=wrap;html=1;rounded=1;" vertex="1" parent="1">
          <mxGeometry x="630" y="670" width="20" height="220" as="geometry" />
        </mxCell>
        <mxCell id="oUv9BmXBuh5ouN48f6Lx-39" value="全部工作面 + 各测点创建" style="ellipse;whiteSpace=wrap;html=1;fillColor=#f8cecc;strokeColor=#b85450;rounded=1;" vertex="1" parent="1">
          <mxGeometry x="670" y="720" width="120" height="60" as="geometry" />
        </mxCell>
        <mxCell id="oUv9BmXBuh5ouN48f6Lx-40" value="全部工作面 + 全部测点 视图" style="ellipse;whiteSpace=wrap;html=1;fillColor=#f8cecc;strokeColor=#b85450;rounded=1;" vertex="1" parent="1">
          <mxGeometry x="290" y="560" width="120" height="60" as="geometry" />
        </mxCell>
        <mxCell id="oUv9BmXBuh5ouN48f6Lx-42" value="各工作面创建 + 全部测点" style="ellipse;whiteSpace=wrap;html=1;fillColor=#f8cecc;strokeColor=#b85450;rounded=1;" vertex="1" parent="1">
          <mxGeometry x="480" y="930" width="120" height="60" as="geometry" />
        </mxCell>
        <mxCell id="oUv9BmXBuh5ouN48f6Lx-43" value="具体工作面 * 全部测点" style="ellipse;whiteSpace=wrap;html=1;fillColor=#f8cecc;strokeColor=#b85450;rounded=1;" vertex="1" parent="1">
          <mxGeometry x="480" y="1000" width="120" height="60" as="geometry" />
        </mxCell>
        <mxCell id="oUv9BmXBuh5ouN48f6Lx-44" value="具体工作面 * 各测点创建" style="ellipse;whiteSpace=wrap;html=1;fillColor=#f8cecc;strokeColor=#b85450;rounded=1;" vertex="1" parent="1">
          <mxGeometry x="670" y="790" width="120" height="60" as="geometry" />
        </mxCell>
        <mxCell id="oUv9BmXBuh5ouN48f6Lx-45" value="具体工作面 + 具体监测点" style="ellipse;whiteSpace=wrap;html=1;fillColor=#f8cecc;strokeColor=#b85450;rounded=1;" vertex="1" parent="1">
          <mxGeometry x="670" y="860" width="120" height="60" as="geometry" />
        </mxCell>
      </root>
    </mxGraphModel>
  </diagram>
</mxfile>
